<svg xmlns="http://www.w3.org/2000/svg" viewBox="0 0 400 400" fill="none" stroke="currentColor" stroke-width="6" stroke-linecap="round" stroke-linejoin="round">
  <!-- Hand-drawn style browser & code wireframe doodle -->
  <path d="M50 100 C50 85, 65 70, 80 70 L320 70 C335 70, 350 85, 350 100 L350 300 C350 315, 335 330, 320 330 L80 330 C65 330, 50 315, 50 300 Z" />
  <path d="M50 130 L350 130" />
  <!-- Browser dots -->
  <circle cx="85" cy="100" r="6" />
  <circle cx="110" cy="100" r="6" />
  <circle cx="135" cy="100" r="6" />
  <!-- Code brackets -->
  <path d="M150 200 L120 230 L150 260" />
  <path d="M250 200 L280 230 L250 260" />
  <path d="M210 180 L190 280" />
  <!-- Wireframe sketch lines -->
  <path d="M90 280 L140 280 M260 280 L310 280" stroke-dasharray="6 6" />
</svg>
